<svg xmlns="http://www.w3.org/2000/svg" viewBox="0 0 512 512" width="512" height="512">
  <defs>
    <linearGradient id="bgm" x1="0" y1="0" x2="1" y2="1">
      <stop offset="0" stop-color="#1b2536"/>
      <stop offset="1" stop-color="#0d1117"/>
    </linearGradient>
    <linearGradient id="accentm" x1="0" y1="0" x2="1" y2="1">
      <stop offset="0" stop-color="#ffb347"/>
      <stop offset="1" stop-color="#ff7a59"/>
    </linearGradient>
  </defs>
  <!-- full-bleed background for maskable safe zone -->
  <rect x="0" y="0" width="512" height="512" fill="url(#bgm)"/>
  <!-- content kept within the inner 80% safe zone -->
  <g transform="translate(146 150) scale(0.69)">
    <rect x="0" y="96" width="320" height="196" rx="22" fill="#e6edf3"/>
    <g transform="rotate(-8 20 78)">
      <rect x="-6" y="40" width="336" height="66" rx="16" fill="#141b26"/>
      <g fill="#e6edf3">
        <polygon points="14,46 46,46 26,100 -6,100"/>
        <polygon points="70,46 102,46 82,100 50,100"/>
        <polygon points="126,46 158,46 138,100 106,100"/>
        <polygon points="182,46 214,46 194,100 162,100"/>
        <polygon points="238,46 270,46 250,100 218,100"/>
        <polygon points="294,46 326,46 306,100 274,100"/>
      </g>
    </g>
    <path d="M128 150 L228 200 L128 250 Z" fill="url(#accentm)"/>
  </g>
</svg>
